%FSLAX34Y34*%
%MOMM*%
%LNCOPPER_TOP*%
G71*
G01*
%ADD10R, 3.600X2.000*%
%ADD11R, 6.600X3.600*%
%ADD12R, 3.600X6.600*%
%ADD13C, 1.400*%
%ADD14C, 2.600*%
%ADD15R, 1.670X2.400*%
%ADD16C, 1.500*%
%ADD17C, 2.000*%
%ADD18R, 2.400X1.670*%
%ADD19C, 1.700*%
%ADD20R, 2.000X0.400*%
%ADD21R, 5.000X2.000*%
%ADD22R, 2.000X5.000*%
%ADD23C, 0.400*%
%ADD24C, 1.000*%
%ADD25R, 0.870X1.600*%
%ADD26C, 0.500*%
%ADD27R, 1.600X0.870*%
%ADD28C, 0.700*%
%LPD*%
G36*
X0Y0D02*
X495000Y0D01*
X495000Y-245000D01*
X0Y-245000D01*
X0Y0D01*
G37*
%LPC*%
X194600Y-136000D02*
G54D10*
D03*
X194600Y-142500D02*
G54D10*
D03*
X194600Y-149000D02*
G54D10*
D03*
X194600Y-155500D02*
G54D10*
D03*
X194600Y-162000D02*
G54D10*
D03*
X194600Y-168500D02*
G54D10*
D03*
X194600Y-175000D02*
G54D10*
D03*
X194600Y-181500D02*
G54D10*
D03*
X194600Y-188000D02*
G54D10*
D03*
X194600Y-194500D02*
G54D10*
D03*
X194600Y-201000D02*
G54D10*
D03*
X194600Y-207500D02*
G54D10*
D03*
X194600Y-214000D02*
G54D10*
D03*
X194600Y-220500D02*
G54D10*
D03*
X270200Y-136000D02*
G54D10*
D03*
X270200Y-142500D02*
G54D10*
D03*
X270200Y-149000D02*
G54D10*
D03*
X270200Y-155500D02*
G54D10*
D03*
X270200Y-162000D02*
G54D10*
D03*
X270200Y-168500D02*
G54D10*
D03*
X270200Y-175000D02*
G54D10*
D03*
X270200Y-181500D02*
G54D10*
D03*
X270200Y-188000D02*
G54D10*
D03*
X270200Y-194500D02*
G54D10*
D03*
X270200Y-201000D02*
G54D10*
D03*
X270200Y-207500D02*
G54D10*
D03*
X270200Y-214000D02*
G54D10*
D03*
X270200Y-220500D02*
G54D10*
D03*
X113000Y-42000D02*
G54D11*
D03*
X113000Y-67000D02*
G54D11*
D03*
X113000Y-92000D02*
G54D11*
D03*
X472686Y-102277D02*
G54D12*
D03*
X447686Y-102277D02*
G54D12*
D03*
X422686Y-102277D02*
G54D12*
D03*
X395686Y-172277D02*
G54D12*
D03*
X370686Y-172277D02*
G54D12*
D03*
X345686Y-172277D02*
G54D12*
D03*
X463000Y-187000D02*
G54D11*
D03*
X463000Y-214000D02*
G54D11*
D03*
X250500Y-28500D02*
G54D11*
D03*
G54D13*
X270200Y-220500D02*
X456500Y-220500D01*
X463000Y-214000D01*
G54D13*
X270200Y-214000D02*
X415000Y-214000D01*
X427000Y-202000D01*
X427000Y-192000D01*
X434000Y-185000D01*
X461000Y-185000D01*
X463000Y-187000D01*
X463000Y-159000D02*
G54D11*
D03*
G54D14*
X463000Y-159000D02*
X408962Y-159000D01*
X395686Y-172277D01*
G54D14*
X463000Y-159000D02*
X463000Y-150000D01*
X473000Y-140000D01*
X473000Y-102591D01*
X472686Y-102277D01*
X364300Y-101700D02*
G54D15*
D03*
X394700Y-101700D02*
G54D15*
D03*
X421000Y-52000D02*
G54D15*
D03*
X451400Y-52000D02*
G54D15*
D03*
G54D16*
X421000Y-52000D02*
X421000Y-100591D01*
X422686Y-102277D01*
G54D17*
X472686Y-102277D02*
X472686Y-17686D01*
X462000Y-7000D01*
X123000Y-7000D01*
X110000Y-20000D01*
X110000Y-39000D01*
X113000Y-42000D01*
G54D17*
X113000Y-42000D02*
X29000Y-42000D01*
X17000Y-54000D01*
X17000Y-145000D01*
X30000Y-158000D01*
X113000Y-158000D01*
G54D16*
X451400Y-52000D02*
X473000Y-52000D01*
G54D13*
X270200Y-188000D02*
X236400Y-188000D01*
X230800Y-182400D01*
X230800Y-170800D01*
X215500Y-155500D01*
X194600Y-155500D01*
G54D13*
X270200Y-201000D02*
X284700Y-201000D01*
X287600Y-198100D01*
X287600Y-184900D01*
X284100Y-181400D01*
X270300Y-181400D01*
X270200Y-181500D01*
X321500Y-200000D02*
G54D18*
D03*
X321500Y-230400D02*
G54D18*
D03*
G54D13*
X270200Y-155500D02*
X270200Y-149000D01*
G54D17*
X289500Y-191500D02*
X306000Y-191500D01*
X310700Y-186800D01*
X310700Y-114900D01*
X341300Y-84300D01*
X341300Y-9800D01*
G54D17*
X249200Y-149200D02*
X249200Y-123500D01*
X254100Y-118600D01*
X307000Y-118600D01*
X310700Y-114900D01*
G54D13*
X270200Y-149000D02*
X249400Y-149000D01*
X249200Y-149200D01*
G54D16*
X325900Y-148800D02*
X325900Y-117300D01*
X358900Y-84300D01*
X404709Y-84300D01*
X422686Y-102277D01*
G54D16*
X364300Y-101700D02*
X364300Y-107000D01*
X344200Y-127100D01*
X344200Y-170791D01*
X345686Y-172277D01*
G54D16*
X394700Y-101700D02*
X394700Y-171291D01*
X395686Y-172277D01*
X15600Y-205200D02*
G54D15*
D03*
X46000Y-205200D02*
G54D15*
D03*
X33200Y-89500D02*
G54D15*
D03*
X63600Y-89500D02*
G54D15*
D03*
G54D16*
X33200Y-89500D02*
X19600Y-89500D01*
X18600Y-90500D01*
G54D16*
X63600Y-89500D02*
X110500Y-89500D01*
X113000Y-92000D01*
X154300Y-144000D02*
G54D18*
D03*
X154300Y-174400D02*
G54D18*
D03*
X154300Y-189100D02*
G54D18*
D03*
X154300Y-219500D02*
G54D18*
D03*
G54D16*
X113000Y-208000D02*
X133700Y-208000D01*
X137600Y-204100D01*
X152500Y-204100D01*
X153700Y-202900D01*
X153700Y-189700D01*
X154300Y-189100D01*
G54D19*
X251000Y-187900D02*
X236500Y-187900D01*
X236400Y-188000D01*
X230800Y-182400D01*
X230800Y-170800D01*
X215500Y-155500D01*
G54D16*
X99200Y-208000D02*
X48800Y-208000D01*
X46000Y-205200D01*
G54D16*
X15600Y-205200D02*
X15600Y-146400D01*
X17000Y-145000D01*
G54D13*
X194600Y-175000D02*
X211800Y-175000D01*
X216500Y-179700D01*
X216500Y-195700D01*
X221800Y-201000D01*
X270200Y-201000D01*
G54D19*
X250700Y-200800D02*
X222000Y-200800D01*
X221800Y-201000D01*
X216500Y-195700D01*
X216500Y-179700D01*
X211800Y-175000D01*
G54D16*
X154300Y-144000D02*
X141600Y-144000D01*
X132100Y-134500D01*
X132100Y-111100D01*
X113000Y-92000D01*
X250500Y-53500D02*
G54D11*
D03*
X250500Y-79000D02*
G54D11*
D03*
G54D17*
X250500Y-79000D02*
X250500Y-28500D01*
G54D19*
X250500Y-79000D02*
X250500Y-89100D01*
X225500Y-114100D01*
X225500Y-164500D01*
X291800Y-46800D02*
G54D12*
D03*
X320500Y-46700D02*
G54D12*
D03*
G54D17*
X320500Y-46700D02*
X340100Y-46700D01*
G54D17*
X250500Y-53500D02*
X285100Y-53500D01*
X291800Y-46800D01*
X190000Y-73600D02*
G54D11*
D03*
X180800Y-96900D02*
G54D15*
D03*
X211200Y-96900D02*
G54D15*
D03*
G54D16*
X211200Y-100400D02*
X211800Y-100400D01*
X225500Y-114100D01*
X176900Y-117400D02*
G54D15*
D03*
X207300Y-117400D02*
G54D15*
D03*
G54D16*
X180800Y-96900D02*
X180800Y-82800D01*
X190000Y-73600D01*
G54D16*
X180800Y-96900D02*
X191000Y-96900D01*
X194600Y-100500D01*
X194600Y-115800D01*
X196500Y-117700D01*
X207000Y-117700D01*
X207300Y-117400D01*
G54D13*
X176900Y-117400D02*
X180800Y-117400D01*
X194900Y-131500D01*
X194900Y-135700D01*
X194600Y-136000D01*
X63700Y-13400D02*
G54D11*
D03*
G54D13*
X110000Y-20000D02*
X106800Y-20000D01*
X99200Y-12400D01*
X64700Y-12400D01*
X63700Y-13400D01*
G54D13*
X194600Y-149000D02*
X175200Y-149000D01*
X169200Y-155000D01*
X169200Y-171900D01*
X167100Y-174000D01*
X154700Y-174000D01*
X154300Y-174400D01*
G54D13*
X154300Y-219600D02*
X165800Y-219600D01*
X169600Y-215800D01*
X169600Y-184000D01*
X176600Y-177000D01*
X176600Y-164100D01*
X178700Y-162000D01*
X194500Y-162000D01*
X344800Y-203500D02*
G54D18*
D03*
X344800Y-233900D02*
G54D18*
D03*
G54D13*
X344800Y-203500D02*
X344800Y-173162D01*
X345686Y-172277D01*
G54D16*
X325900Y-148800D02*
X325900Y-195600D01*
X321500Y-200000D01*
G54D13*
X194600Y-201000D02*
X209100Y-201000D01*
X216800Y-208700D01*
X216800Y-225200D01*
X222000Y-230400D01*
X321500Y-230400D01*
G54D13*
X194600Y-194500D02*
X181800Y-194500D01*
X177300Y-199000D01*
X177300Y-234300D01*
X183600Y-240600D01*
X338100Y-240600D01*
X344800Y-233900D01*
X105100Y-158300D02*
G54D11*
D03*
X105100Y-183300D02*
G54D11*
D03*
X105100Y-208300D02*
G54D11*
D03*
%LPD*%
X194600Y-136000D02*
G54D20*
D03*
X194600Y-142500D02*
G54D20*
D03*
X194600Y-149000D02*
G54D20*
D03*
X194600Y-155500D02*
G54D20*
D03*
X194600Y-162000D02*
G54D20*
D03*
X194600Y-168500D02*
G54D20*
D03*
X194600Y-175000D02*
G54D20*
D03*
X194600Y-181500D02*
G54D20*
D03*
X194600Y-188000D02*
G54D20*
D03*
X194600Y-194500D02*
G54D20*
D03*
X194600Y-201000D02*
G54D20*
D03*
X194600Y-207500D02*
G54D20*
D03*
X194600Y-214000D02*
G54D20*
D03*
X194600Y-220500D02*
G54D20*
D03*
X270200Y-136000D02*
G54D20*
D03*
X270200Y-142500D02*
G54D20*
D03*
X270200Y-149000D02*
G54D20*
D03*
X270200Y-155500D02*
G54D20*
D03*
X270200Y-162000D02*
G54D20*
D03*
X270200Y-168500D02*
G54D20*
D03*
X270200Y-175000D02*
G54D20*
D03*
X270200Y-181500D02*
G54D20*
D03*
X270200Y-188000D02*
G54D20*
D03*
X270200Y-194500D02*
G54D20*
D03*
X270200Y-201000D02*
G54D20*
D03*
X270200Y-207500D02*
G54D20*
D03*
X270200Y-214000D02*
G54D20*
D03*
X270200Y-220500D02*
G54D20*
D03*
X113000Y-42000D02*
G54D21*
D03*
X113000Y-67000D02*
G54D21*
D03*
X113000Y-92000D02*
G54D21*
D03*
X472686Y-102277D02*
G54D22*
D03*
X447686Y-102277D02*
G54D22*
D03*
X422686Y-102277D02*
G54D22*
D03*
X395686Y-172277D02*
G54D22*
D03*
X370686Y-172277D02*
G54D22*
D03*
X345686Y-172277D02*
G54D22*
D03*
X463000Y-187000D02*
G54D21*
D03*
X463000Y-214000D02*
G54D21*
D03*
X250500Y-28500D02*
G54D21*
D03*
G54D23*
X270200Y-220500D02*
X456500Y-220500D01*
X463000Y-214000D01*
G54D23*
X270200Y-214000D02*
X415000Y-214000D01*
X427000Y-202000D01*
X427000Y-192000D01*
X434000Y-185000D01*
X461000Y-185000D01*
X463000Y-187000D01*
X463000Y-159000D02*
G54D21*
D03*
G54D24*
X463000Y-159000D02*
X408962Y-159000D01*
X395686Y-172277D01*
G54D24*
X463000Y-159000D02*
X463000Y-150000D01*
X473000Y-140000D01*
X473000Y-102591D01*
X472686Y-102277D01*
X364300Y-101700D02*
G54D25*
D03*
X394700Y-101700D02*
G54D25*
D03*
X421000Y-52000D02*
G54D25*
D03*
X451400Y-52000D02*
G54D25*
D03*
G54D26*
X421000Y-52000D02*
X421000Y-100591D01*
X422686Y-102277D01*
G54D24*
X472686Y-102277D02*
X472686Y-17686D01*
X462000Y-7000D01*
X123000Y-7000D01*
X110000Y-20000D01*
X110000Y-39000D01*
X113000Y-42000D01*
G54D24*
X113000Y-42000D02*
X29000Y-42000D01*
X17000Y-54000D01*
X17000Y-145000D01*
X30000Y-158000D01*
X113000Y-158000D01*
G54D26*
X451400Y-52000D02*
X473000Y-52000D01*
G54D23*
X270200Y-188000D02*
X236400Y-188000D01*
X230800Y-182400D01*
X230800Y-170800D01*
X215500Y-155500D01*
X194600Y-155500D01*
G54D23*
X270200Y-201000D02*
X284700Y-201000D01*
X287600Y-198100D01*
X287600Y-184900D01*
X284100Y-181400D01*
X270300Y-181400D01*
X270200Y-181500D01*
X321500Y-200000D02*
G54D27*
D03*
X321500Y-230400D02*
G54D27*
D03*
G54D23*
X270200Y-155500D02*
X270200Y-149000D01*
G54D24*
X289500Y-191500D02*
X306000Y-191500D01*
X310700Y-186800D01*
X310700Y-114900D01*
X341300Y-84300D01*
X341300Y-9800D01*
G54D24*
X249200Y-149200D02*
X249200Y-123500D01*
X254100Y-118600D01*
X307000Y-118600D01*
X310700Y-114900D01*
G54D23*
X270200Y-149000D02*
X249400Y-149000D01*
X249200Y-149200D01*
G54D26*
X325900Y-148800D02*
X325900Y-117300D01*
X358900Y-84300D01*
X404709Y-84300D01*
X422686Y-102277D01*
G54D26*
X364300Y-101700D02*
X364300Y-107000D01*
X344200Y-127100D01*
X344200Y-170791D01*
X345686Y-172277D01*
G54D26*
X394700Y-101700D02*
X394700Y-171291D01*
X395686Y-172277D01*
X15600Y-205200D02*
G54D25*
D03*
X46000Y-205200D02*
G54D25*
D03*
X33200Y-89500D02*
G54D25*
D03*
X63600Y-89500D02*
G54D25*
D03*
G54D26*
X33200Y-89500D02*
X19600Y-89500D01*
X18600Y-90500D01*
G54D26*
X63600Y-89500D02*
X110500Y-89500D01*
X113000Y-92000D01*
X154300Y-144000D02*
G54D27*
D03*
X154300Y-174400D02*
G54D27*
D03*
X154300Y-189100D02*
G54D27*
D03*
X154300Y-219500D02*
G54D27*
D03*
G54D26*
X113000Y-208000D02*
X133700Y-208000D01*
X137600Y-204100D01*
X152500Y-204100D01*
X153700Y-202900D01*
X153700Y-189700D01*
X154300Y-189100D01*
G54D28*
X251000Y-187900D02*
X236500Y-187900D01*
X236400Y-188000D01*
X230800Y-182400D01*
X230800Y-170800D01*
X215500Y-155500D01*
G54D26*
X99200Y-208000D02*
X48800Y-208000D01*
X46000Y-205200D01*
G54D26*
X15600Y-205200D02*
X15600Y-146400D01*
X17000Y-145000D01*
G54D23*
X194600Y-175000D02*
X211800Y-175000D01*
X216500Y-179700D01*
X216500Y-195700D01*
X221800Y-201000D01*
X270200Y-201000D01*
G54D28*
X250700Y-200800D02*
X222000Y-200800D01*
X221800Y-201000D01*
X216500Y-195700D01*
X216500Y-179700D01*
X211800Y-175000D01*
G54D26*
X154300Y-144000D02*
X141600Y-144000D01*
X132100Y-134500D01*
X132100Y-111100D01*
X113000Y-92000D01*
X250500Y-53500D02*
G54D21*
D03*
X250500Y-79000D02*
G54D21*
D03*
G54D24*
X250500Y-79000D02*
X250500Y-28500D01*
G54D28*
X250500Y-79000D02*
X250500Y-89100D01*
X225500Y-114100D01*
X225500Y-164500D01*
X291800Y-46800D02*
G54D22*
D03*
X320500Y-46700D02*
G54D22*
D03*
G54D24*
X320500Y-46700D02*
X340100Y-46700D01*
G54D24*
X250500Y-53500D02*
X285100Y-53500D01*
X291800Y-46800D01*
X190000Y-73600D02*
G54D21*
D03*
X180800Y-96900D02*
G54D25*
D03*
X211200Y-96900D02*
G54D25*
D03*
G54D26*
X211200Y-100400D02*
X211800Y-100400D01*
X225500Y-114100D01*
X176900Y-117400D02*
G54D25*
D03*
X207300Y-117400D02*
G54D25*
D03*
G54D26*
X180800Y-96900D02*
X180800Y-82800D01*
X190000Y-73600D01*
G54D26*
X180800Y-96900D02*
X191000Y-96900D01*
X194600Y-100500D01*
X194600Y-115800D01*
X196500Y-117700D01*
X207000Y-117700D01*
X207300Y-117400D01*
G54D23*
X176900Y-117400D02*
X180800Y-117400D01*
X194900Y-131500D01*
X194900Y-135700D01*
X194600Y-136000D01*
X63700Y-13400D02*
G54D21*
D03*
G54D23*
X110000Y-20000D02*
X106800Y-20000D01*
X99200Y-12400D01*
X64700Y-12400D01*
X63700Y-13400D01*
G54D23*
X194600Y-149000D02*
X175200Y-149000D01*
X169200Y-155000D01*
X169200Y-171900D01*
X167100Y-174000D01*
X154700Y-174000D01*
X154300Y-174400D01*
G54D23*
X154300Y-219600D02*
X165800Y-219600D01*
X169600Y-215800D01*
X169600Y-184000D01*
X176600Y-177000D01*
X176600Y-164100D01*
X178700Y-162000D01*
X194500Y-162000D01*
X344800Y-203500D02*
G54D27*
D03*
X344800Y-233900D02*
G54D27*
D03*
G54D23*
X344800Y-203500D02*
X344800Y-173162D01*
X345686Y-172277D01*
G54D26*
X325900Y-148800D02*
X325900Y-195600D01*
X321500Y-200000D01*
G54D23*
X194600Y-201000D02*
X209100Y-201000D01*
X216800Y-208700D01*
X216800Y-225200D01*
X222000Y-230400D01*
X321500Y-230400D01*
G54D23*
X194600Y-194500D02*
X181800Y-194500D01*
X177300Y-199000D01*
X177300Y-234300D01*
X183600Y-240600D01*
X338100Y-240600D01*
X344800Y-233900D01*
X105100Y-158300D02*
G54D21*
D03*
X105100Y-183300D02*
G54D21*
D03*
X105100Y-208300D02*
G54D21*
D03*
M02*
