%FSLAX34Y34*%
%MOMM*%
%LNSILK_TOP*%
G71*
G01*
%ADD10C, 0.100*%
%ADD11C, 0.178*%
%ADD12C, 0.111*%
%ADD13C, 0.144*%
%LPD*%
G54D10*
X206000Y-127000D02*
X259100Y-127000D01*
X259100Y-229100D01*
X206000Y-229100D01*
X206000Y-127000D01*
G36*
X209000Y-131000D02*
X212000Y-131000D01*
X212000Y-134000D01*
X209000Y-134000D01*
X209000Y-131000D01*
G37*
G54D10*
X209000Y-131000D02*
X212000Y-131000D01*
X212000Y-134000D01*
X209000Y-134000D01*
X209000Y-131000D01*
G54D11*
X225751Y-140488D02*
X239973Y-140488D01*
X239973Y-147954D01*
G54D11*
X232862Y-140488D02*
X232862Y-147954D01*
G54D11*
X225751Y-156132D02*
X239973Y-156132D01*
G54D11*
X239973Y-151866D02*
X239973Y-160399D01*
G54D11*
X225751Y-172843D02*
X225751Y-164310D01*
X226640Y-164310D01*
X228418Y-165376D01*
X233751Y-171776D01*
X235529Y-172843D01*
X237306Y-172843D01*
X239084Y-171776D01*
X239973Y-169643D01*
X239973Y-167510D01*
X239084Y-165376D01*
X237306Y-164310D01*
G54D11*
X237306Y-176754D02*
X239084Y-177820D01*
X239973Y-179954D01*
X239973Y-182087D01*
X239084Y-184220D01*
X237306Y-185287D01*
X235529Y-185287D01*
X233751Y-184220D01*
X232862Y-182087D01*
X231973Y-184220D01*
X230195Y-185287D01*
X228418Y-185287D01*
X226640Y-184220D01*
X225751Y-182087D01*
X225751Y-179954D01*
X226640Y-177820D01*
X228418Y-176754D01*
G54D11*
X225751Y-197731D02*
X225751Y-189198D01*
X226640Y-189198D01*
X228418Y-190264D01*
X233751Y-196664D01*
X235529Y-197731D01*
X237306Y-197731D01*
X239084Y-196664D01*
X239973Y-194531D01*
X239973Y-192398D01*
X239084Y-190264D01*
X237306Y-189198D01*
G54D11*
X232862Y-205908D02*
X231084Y-209108D01*
X229306Y-210175D01*
X225751Y-210175D01*
G54D11*
X225751Y-201642D02*
X239973Y-201642D01*
X239973Y-206975D01*
X239084Y-209108D01*
X237306Y-210175D01*
X235529Y-210175D01*
X233751Y-209108D01*
X232862Y-206975D01*
X232862Y-201642D01*
G54D11*
X239973Y-214086D02*
X225751Y-214086D01*
X225751Y-221552D01*
G54D10*
X16000Y-32000D02*
X86000Y-32000D01*
X86000Y-102000D01*
X16000Y-102000D01*
X16000Y-32000D01*
G54D12*
X76000Y-96000D02*
X76000Y-87111D01*
X79333Y-87111D01*
X80667Y-87667D01*
X81333Y-88778D01*
X81333Y-89889D01*
X80667Y-91000D01*
X79333Y-91556D01*
X80667Y-92111D01*
X81333Y-93222D01*
X81333Y-94333D01*
X80667Y-95444D01*
X79333Y-96000D01*
X76000Y-96000D01*
G54D12*
X76000Y-91556D02*
X79333Y-91556D01*
G54D11*
X23666Y-74667D02*
X23666Y-60445D01*
G54D11*
X23666Y-70223D02*
X32199Y-60445D01*
G54D11*
X26866Y-67556D02*
X32199Y-74667D01*
G54D11*
X40377Y-74667D02*
X40377Y-60445D01*
G54D11*
X36110Y-60445D02*
X44643Y-60445D01*
G54D11*
X48554Y-63111D02*
X49621Y-61334D01*
X51754Y-60445D01*
X53887Y-60445D01*
X56021Y-61334D01*
X57087Y-63111D01*
X57087Y-64889D01*
X56021Y-66667D01*
X53887Y-67556D01*
X56021Y-68445D01*
X57087Y-70223D01*
X57087Y-72000D01*
X56021Y-73778D01*
X53887Y-74667D01*
X51754Y-74667D01*
X49621Y-73778D01*
X48554Y-72000D01*
G54D11*
X60998Y-65778D02*
X66331Y-60445D01*
X66331Y-74667D01*
G54D11*
X78775Y-60445D02*
X70242Y-60445D01*
X70242Y-66667D01*
X71309Y-66667D01*
X73442Y-65778D01*
X75575Y-65778D01*
X77709Y-66667D01*
X78775Y-68445D01*
X78775Y-72000D01*
X77709Y-73778D01*
X75575Y-74667D01*
X73442Y-74667D01*
X71309Y-73778D01*
X70242Y-72000D01*
G54D10*
X482686Y-5277D02*
X482686Y-75277D01*
X412686Y-75277D01*
X412686Y-5277D01*
X482686Y-5277D01*
G54D12*
X418686Y-65277D02*
X427574Y-65277D01*
X427574Y-68610D01*
X427019Y-69943D01*
X425908Y-70610D01*
X424797Y-70610D01*
X423686Y-69943D01*
X423130Y-68610D01*
X422574Y-69943D01*
X421463Y-70610D01*
X420352Y-70610D01*
X419241Y-69943D01*
X418686Y-68610D01*
X418686Y-65277D01*
G54D12*
X423130Y-65277D02*
X423130Y-68610D01*
G54D11*
X420063Y-30811D02*
X420063Y-16589D01*
G54D11*
X420063Y-26367D02*
X428596Y-16589D01*
G54D11*
X423263Y-23700D02*
X428596Y-30811D01*
G54D11*
X436773Y-30811D02*
X436773Y-16589D01*
G54D11*
X432507Y-16589D02*
X441040Y-16589D01*
G54D11*
X444951Y-19256D02*
X446017Y-17478D01*
X448151Y-16589D01*
X450284Y-16589D01*
X452417Y-17478D01*
X453484Y-19256D01*
X453484Y-21033D01*
X452417Y-22811D01*
X450284Y-23700D01*
X452417Y-24589D01*
X453484Y-26367D01*
X453484Y-28144D01*
X452417Y-29922D01*
X450284Y-30811D01*
X448151Y-30811D01*
X446017Y-29922D01*
X444951Y-28144D01*
G54D11*
X457395Y-21922D02*
X462728Y-16589D01*
X462728Y-30811D01*
G54D11*
X475172Y-16589D02*
X466639Y-16589D01*
X466639Y-22811D01*
X467705Y-22811D01*
X469839Y-21922D01*
X471972Y-21922D01*
X474105Y-22811D01*
X475172Y-24589D01*
X475172Y-28144D01*
X474105Y-29922D01*
X471972Y-30811D01*
X469839Y-30811D01*
X467705Y-29922D01*
X466639Y-28144D01*
G54D12*
X341686Y-135277D02*
X350574Y-135277D01*
X350574Y-138610D01*
X350019Y-139943D01*
X348908Y-140610D01*
X347797Y-140610D01*
X346686Y-139943D01*
X346130Y-138610D01*
X345574Y-139943D01*
X344463Y-140610D01*
X343352Y-140610D01*
X342241Y-139943D01*
X341686Y-138610D01*
X341686Y-135277D01*
G54D12*
X346130Y-135277D02*
X346130Y-138610D01*
G54D11*
X363418Y-28343D02*
X377641Y-28343D01*
G54D11*
X367863Y-28343D02*
X377641Y-36876D01*
G54D11*
X370530Y-31543D02*
X363418Y-36876D01*
G54D11*
X363418Y-45053D02*
X377641Y-45053D01*
G54D11*
X377641Y-40787D02*
X377641Y-49320D01*
G54D11*
X370530Y-58564D02*
X370530Y-56431D01*
X371418Y-54297D01*
X373196Y-53231D01*
X374974Y-53231D01*
X376752Y-54297D01*
X377641Y-56431D01*
X377641Y-58564D01*
X376752Y-60697D01*
X374974Y-61764D01*
X373196Y-61764D01*
X371418Y-60697D01*
X370530Y-58564D01*
X369641Y-60697D01*
X367863Y-61764D01*
X366085Y-61764D01*
X364307Y-60697D01*
X363418Y-58564D01*
X363418Y-56431D01*
X364307Y-54297D01*
X366085Y-53231D01*
X367863Y-53231D01*
X369641Y-54297D01*
X370530Y-56431D01*
G54D11*
X372307Y-65675D02*
X377641Y-71008D01*
X363418Y-71008D01*
G54D11*
X377641Y-83452D02*
X377641Y-74919D01*
X371418Y-74919D01*
X371418Y-75985D01*
X372307Y-78119D01*
X372307Y-80252D01*
X371418Y-82385D01*
X369641Y-83452D01*
X366085Y-83452D01*
X364307Y-82385D01*
X363418Y-80252D01*
X363418Y-78119D01*
X364307Y-75985D01*
X366085Y-74919D01*
G54D10*
X405686Y-5277D02*
X405686Y-145277D01*
X335686Y-145277D01*
X335686Y-5277D01*
X405686Y-5277D01*
G54D11*
X412000Y-194000D02*
X412000Y-192222D01*
X422667Y-192222D01*
X422667Y-194000D01*
G54D11*
X414133Y-192222D02*
X414133Y-182444D01*
X417333Y-179778D01*
X420533Y-179778D01*
X420533Y-192222D01*
G54D11*
X426578Y-187778D02*
X435111Y-187778D01*
G54D11*
X411000Y-221000D02*
X411000Y-219222D01*
X421667Y-219222D01*
X421667Y-221000D01*
G54D11*
X413133Y-219222D02*
X413133Y-209444D01*
X416333Y-206778D01*
X419533Y-206778D01*
X419533Y-219222D01*
G54D11*
X425578Y-214778D02*
X434111Y-214778D01*
G54D11*
X429845Y-211222D02*
X429845Y-218333D01*
G54D11*
X413000Y-166000D02*
X413000Y-151778D01*
X421533Y-151778D01*
X421533Y-166000D01*
G54D11*
X425444Y-159778D02*
X433977Y-159778D01*
G54D10*
X369300Y-93700D02*
X389300Y-93700D01*
X389300Y-109700D01*
X369300Y-109700D01*
X369300Y-93700D01*
G54D10*
X370916Y-101589D02*
X373916Y-98589D01*
X373916Y-106589D01*
G54D10*
X380916Y-100089D02*
X380916Y-105089D01*
X380316Y-106089D01*
X379116Y-106589D01*
X377916Y-106589D01*
X376716Y-106089D01*
X376116Y-105089D01*
X376116Y-100089D01*
X376716Y-99089D01*
X377916Y-98589D01*
X379116Y-98589D01*
X380316Y-99089D01*
X380916Y-100089D01*
G54D10*
X383116Y-100089D02*
X383716Y-99089D01*
X384916Y-98589D01*
X386116Y-98589D01*
X387316Y-99089D01*
X387916Y-100089D01*
X387916Y-101089D01*
X387316Y-102089D01*
X386116Y-102589D01*
X387316Y-103089D01*
X387916Y-104089D01*
X387916Y-105089D01*
X387316Y-106089D01*
X386116Y-106589D01*
X384916Y-106589D01*
X383716Y-106089D01*
X383116Y-105089D01*
G54D10*
X426000Y-44000D02*
X446000Y-44000D01*
X446000Y-60000D01*
X426000Y-60000D01*
X426000Y-44000D01*
G54D10*
X427616Y-51889D02*
X430616Y-48889D01*
X430616Y-56889D01*
G54D10*
X437616Y-50389D02*
X437616Y-55389D01*
X437016Y-56389D01*
X435816Y-56889D01*
X434616Y-56889D01*
X433416Y-56389D01*
X432816Y-55389D01*
X432816Y-50389D01*
X433416Y-49389D01*
X434616Y-48889D01*
X435816Y-48889D01*
X437016Y-49389D01*
X437616Y-50389D01*
G54D10*
X439816Y-50389D02*
X440416Y-49389D01*
X441616Y-48889D01*
X442816Y-48889D01*
X444016Y-49389D01*
X444616Y-50389D01*
X444616Y-51389D01*
X444016Y-52389D01*
X442816Y-52889D01*
X444016Y-53389D01*
X444616Y-54389D01*
X444616Y-55389D01*
X444016Y-56389D01*
X442816Y-56889D01*
X441616Y-56889D01*
X440416Y-56389D01*
X439816Y-55389D01*
G54D13*
X433559Y-141668D02*
X433559Y-130113D01*
G54D13*
X433559Y-138057D02*
X440492Y-130113D01*
G54D13*
X436159Y-135891D02*
X440492Y-141668D01*
G54D13*
X443670Y-135168D02*
X443670Y-144557D01*
G54D13*
X443670Y-139502D02*
X444537Y-141380D01*
X446270Y-141668D01*
X448003Y-141380D01*
X448870Y-139935D01*
X448870Y-137046D01*
X448003Y-135602D01*
X446270Y-135168D01*
X444537Y-135602D01*
X443670Y-137335D01*
G54D13*
X452048Y-135891D02*
X453781Y-135168D01*
X455861Y-135168D01*
X457248Y-136613D01*
X457248Y-141668D01*
G54D13*
X457248Y-139502D02*
X456381Y-138057D01*
X454648Y-137768D01*
X452915Y-138057D01*
X452048Y-139502D01*
X452395Y-140946D01*
X453781Y-141668D01*
X454648Y-141668D01*
X454995Y-141668D01*
X456381Y-140946D01*
X457248Y-139502D01*
G54D13*
X464759Y-135602D02*
X463026Y-135168D01*
X461293Y-135602D01*
X460426Y-137046D01*
X460426Y-139935D01*
X461293Y-141380D01*
X463026Y-141668D01*
X464759Y-141380D01*
G54D13*
X468630Y-141668D02*
X467937Y-141668D01*
X467937Y-141091D01*
X468630Y-141091D01*
X468630Y-141668D01*
X467937Y-141668D01*
G54D13*
X368047Y-202886D02*
X379603Y-202886D01*
X372381Y-207219D01*
X379603Y-211553D01*
X368047Y-211553D01*
G54D13*
X373825Y-214731D02*
X374547Y-216464D01*
X374547Y-218544D01*
X373103Y-219931D01*
X368047Y-219931D01*
G54D13*
X370214Y-219931D02*
X371658Y-219064D01*
X371947Y-217331D01*
X371658Y-215598D01*
X370214Y-214731D01*
X368770Y-215078D01*
X368047Y-216464D01*
X368047Y-217331D01*
X368047Y-217678D01*
X368770Y-219064D01*
X370214Y-219931D01*
G54D13*
X368047Y-223109D02*
X374547Y-223109D01*
X374547Y-228309D01*
X373825Y-228309D01*
G54D13*
X368047Y-231487D02*
X374547Y-231487D01*
G54D13*
X371658Y-231487D02*
X371658Y-236687D01*
G54D13*
X368047Y-236687D02*
X374547Y-236687D01*
G54D13*
X368047Y-240558D02*
X368047Y-239865D01*
X368625Y-239865D01*
X368625Y-240558D01*
X368047Y-240558D01*
X368047Y-239865D01*
G54D10*
X329500Y-205000D02*
X329500Y-225000D01*
X313500Y-225000D01*
X313500Y-205000D01*
X329500Y-205000D01*
G54D10*
X324611Y-211416D02*
X324611Y-206616D01*
X321111Y-206617D01*
X321111Y-207216D01*
X321611Y-208417D01*
X321611Y-209616D01*
X321111Y-210816D01*
X320111Y-211416D01*
X318111Y-211416D01*
X317111Y-210816D01*
X316611Y-209617D01*
X316611Y-208416D01*
X317111Y-207216D01*
X318111Y-206616D01*
G54D10*
X323111Y-218416D02*
X324111Y-217816D01*
X324611Y-216616D01*
X324611Y-215416D01*
X324111Y-214216D01*
X323111Y-213616D01*
X320611Y-213616D01*
X320111Y-213616D01*
X321111Y-215416D01*
X321111Y-216616D01*
X320611Y-217816D01*
X319611Y-218416D01*
X318111Y-218416D01*
X317111Y-217816D01*
X316611Y-216616D01*
X316611Y-215416D01*
X317111Y-214216D01*
X318111Y-213616D01*
X320611Y-213616D01*
G54D10*
X321611Y-220616D02*
X324611Y-223616D01*
X316611Y-223616D01*
G54D10*
X20600Y-197200D02*
X40600Y-197200D01*
X40600Y-213200D01*
X20600Y-213200D01*
X20600Y-197200D01*
G54D10*
X22216Y-205089D02*
X25216Y-202089D01*
X25216Y-210089D01*
G54D10*
X32216Y-203589D02*
X32216Y-208589D01*
X31616Y-209589D01*
X30416Y-210089D01*
X29216Y-210089D01*
X28016Y-209589D01*
X27416Y-208589D01*
X27416Y-203589D01*
X28016Y-202589D01*
X29216Y-202089D01*
X30416Y-202089D01*
X31616Y-202589D01*
X32216Y-203589D01*
G54D10*
X34416Y-203589D02*
X35016Y-202589D01*
X36216Y-202089D01*
X37416Y-202089D01*
X38616Y-202589D01*
X39216Y-203589D01*
X39216Y-204589D01*
X38616Y-205589D01*
X37416Y-206089D01*
X38616Y-206589D01*
X39216Y-207589D01*
X39216Y-208589D01*
X38616Y-209589D01*
X37416Y-210089D01*
X36216Y-210089D01*
X35016Y-209589D01*
X34416Y-208589D01*
G54D10*
X38200Y-81500D02*
X58200Y-81500D01*
X58200Y-97500D01*
X38200Y-97500D01*
X38200Y-81500D01*
G54D10*
X39816Y-89389D02*
X42816Y-86389D01*
X42816Y-94389D01*
G54D10*
X49816Y-87889D02*
X49816Y-92889D01*
X49216Y-93889D01*
X48016Y-94389D01*
X46816Y-94389D01*
X45616Y-93889D01*
X45016Y-92889D01*
X45016Y-87889D01*
X45616Y-86889D01*
X46816Y-86389D01*
X48016Y-86389D01*
X49216Y-86889D01*
X49816Y-87889D01*
G54D10*
X52016Y-87889D02*
X52616Y-86889D01*
X53816Y-86389D01*
X55016Y-86389D01*
X56216Y-86889D01*
X56816Y-87889D01*
X56816Y-88889D01*
X56216Y-89889D01*
X55016Y-90389D01*
X56216Y-90889D01*
X56816Y-91889D01*
X56816Y-92889D01*
X56216Y-93889D01*
X55016Y-94389D01*
X53816Y-94389D01*
X52616Y-93889D01*
X52016Y-92889D01*
G54D10*
X162300Y-149000D02*
X162300Y-169000D01*
X146300Y-169000D01*
X146300Y-149000D01*
X162300Y-149000D01*
G54D10*
X157411Y-155416D02*
X157411Y-150616D01*
X153911Y-150616D01*
X153911Y-151216D01*
X154411Y-152416D01*
X154411Y-153616D01*
X153911Y-154816D01*
X152911Y-155416D01*
X150911Y-155416D01*
X149911Y-154816D01*
X149411Y-153616D01*
X149411Y-152416D01*
X149911Y-151216D01*
X150911Y-150616D01*
G54D10*
X155911Y-162416D02*
X156911Y-161816D01*
X157411Y-160616D01*
X157411Y-159416D01*
X156911Y-158216D01*
X155911Y-157616D01*
X153411Y-157616D01*
X152911Y-157616D01*
X153911Y-159416D01*
X153911Y-160616D01*
X153411Y-161816D01*
X152411Y-162416D01*
X150911Y-162416D01*
X149911Y-161816D01*
X149411Y-160616D01*
X149411Y-159416D01*
X149911Y-158216D01*
X150911Y-157616D01*
X153411Y-157616D01*
G54D10*
X154411Y-164616D02*
X157411Y-167616D01*
X149411Y-167616D01*
G54D10*
X162300Y-194100D02*
X162300Y-214100D01*
X146300Y-214100D01*
X146300Y-194100D01*
X162300Y-194100D01*
G54D10*
X157411Y-200516D02*
X157411Y-195716D01*
X153911Y-195716D01*
X153911Y-196316D01*
X154411Y-197516D01*
X154411Y-198716D01*
X153911Y-199916D01*
X152911Y-200516D01*
X150911Y-200516D01*
X149911Y-199916D01*
X149411Y-198716D01*
X149411Y-197516D01*
X149911Y-196316D01*
X150911Y-195716D01*
G54D10*
X155911Y-207516D02*
X156911Y-206916D01*
X157411Y-205716D01*
X157411Y-204516D01*
X156911Y-203316D01*
X155911Y-202716D01*
X153411Y-202716D01*
X152911Y-202716D01*
X153911Y-204516D01*
X153911Y-205716D01*
X153411Y-206916D01*
X152411Y-207516D01*
X150911Y-207516D01*
X149911Y-206916D01*
X149411Y-205716D01*
X149411Y-204516D01*
X149911Y-203316D01*
X150911Y-202716D01*
X153411Y-202716D01*
G54D10*
X154411Y-209716D02*
X157411Y-212716D01*
X149411Y-212716D01*
G54D13*
X141321Y-81278D02*
X141321Y-80411D01*
X145654Y-77811D01*
X145654Y-76078D01*
X152877Y-72611D01*
G54D13*
X152877Y-81278D02*
X145654Y-77811D01*
X145654Y-76078D01*
X141321Y-73478D01*
X141321Y-72611D01*
G54D13*
X152877Y-76944D02*
X141321Y-76944D01*
G54D13*
X152154Y-64233D02*
X152877Y-65619D01*
X152877Y-67353D01*
X152154Y-69086D01*
X150710Y-69433D01*
X148254Y-69433D01*
X146810Y-68566D01*
X146377Y-66833D01*
X146810Y-65099D01*
X147821Y-64233D01*
X149265Y-64233D01*
X149265Y-69433D01*
G54D13*
X144932Y-68219D02*
X144932Y-68219D01*
G54D13*
X144932Y-65099D02*
X144932Y-65099D01*
G54D13*
X152877Y-61055D02*
X152154Y-60188D01*
X147821Y-60188D01*
X146377Y-58455D01*
X146377Y-55855D01*
X152877Y-55855D01*
G54D13*
X129365Y-193344D02*
X127921Y-191611D01*
X127921Y-189878D01*
X129365Y-188144D01*
X131532Y-188144D01*
X132977Y-189878D01*
X132977Y-191611D01*
X132977Y-189878D01*
X134421Y-188144D01*
X138032Y-188144D01*
X139477Y-189878D01*
X139477Y-193344D01*
X138032Y-195078D01*
G54D13*
X138754Y-179767D02*
X139477Y-181153D01*
X139477Y-182887D01*
X138754Y-184620D01*
X137310Y-184967D01*
X134854Y-184967D01*
X133410Y-184100D01*
X132977Y-182367D01*
X133410Y-180633D01*
X134421Y-179767D01*
X135865Y-179767D01*
X135865Y-184967D01*
G54D13*
X139477Y-176589D02*
X138754Y-175722D01*
X134421Y-175722D01*
X132977Y-173989D01*
X132977Y-171389D01*
X139477Y-171389D01*
G54D13*
X242713Y-104568D02*
X242713Y-93013D01*
X249646Y-93013D01*
X249646Y-104568D01*
G54D13*
X252824Y-99513D02*
X259757Y-99513D01*
G54D13*
X256291Y-96624D02*
X256291Y-102402D01*
G54D10*
X282500Y-75800D02*
X329000Y-75800D01*
X329000Y-134900D01*
X282500Y-134900D01*
X282500Y-75800D01*
G54D13*
X289413Y-105168D02*
X289413Y-93613D01*
G54D13*
X289413Y-101557D02*
X296346Y-93613D01*
G54D13*
X292013Y-99391D02*
X296346Y-105168D01*
G54D13*
X304724Y-103435D02*
X304724Y-100546D01*
X303857Y-99102D01*
X302124Y-98668D01*
X300391Y-99102D01*
X299524Y-100546D01*
X299524Y-103435D01*
X300391Y-104880D01*
X302124Y-105168D01*
X303857Y-104880D01*
X304724Y-103435D01*
G54D13*
X307902Y-105168D02*
X307902Y-98668D01*
G54D13*
X307902Y-101557D02*
X313102Y-101557D01*
G54D13*
X313102Y-105168D02*
X313102Y-98668D01*
G54D13*
X316280Y-105168D02*
X316280Y-104446D01*
X321480Y-104446D01*
X321480Y-105168D01*
G54D13*
X317147Y-104446D02*
X317147Y-100113D01*
X318880Y-98668D01*
X320613Y-98668D01*
X320613Y-104446D01*
G54D13*
X325351Y-105168D02*
X324658Y-105168D01*
X324658Y-104591D01*
X325351Y-104591D01*
X325351Y-105168D01*
X324658Y-105168D01*
G54D13*
X288213Y-118468D02*
X288213Y-111968D01*
G54D13*
X290813Y-114135D02*
X293413Y-118468D01*
G54D13*
X288213Y-115580D02*
X293413Y-111968D01*
G54D13*
X301791Y-117746D02*
X300404Y-118468D01*
X298671Y-118468D01*
X296938Y-117746D01*
X296591Y-116302D01*
X296591Y-113846D01*
X297458Y-112402D01*
X299191Y-111968D01*
X300924Y-112402D01*
X301791Y-113413D01*
X301791Y-114857D01*
X296591Y-114857D01*
G54D13*
X304969Y-111968D02*
X304969Y-121357D01*
G54D13*
X304969Y-116302D02*
X305836Y-118180D01*
X307569Y-118468D01*
X309302Y-118180D01*
X310169Y-116735D01*
X310169Y-113846D01*
X309302Y-112402D01*
X307569Y-111968D01*
X305836Y-112402D01*
X304969Y-114135D01*
G54D13*
X314040Y-118468D02*
X313347Y-118468D01*
X313347Y-117891D01*
X314040Y-117891D01*
X314040Y-118468D01*
X313347Y-118468D01*
G54D13*
X320569Y-111968D02*
X320569Y-118468D01*
X325769Y-111968D01*
X325769Y-118468D01*
G54D13*
X284813Y-126013D02*
X286546Y-124568D01*
X288280Y-124568D01*
X290013Y-126013D01*
X290013Y-129624D01*
X288280Y-131068D01*
X286546Y-131068D01*
X284813Y-129624D01*
G54D13*
X286546Y-127746D02*
X290013Y-127746D01*
G54D13*
X293191Y-131068D02*
X294058Y-130346D01*
X294058Y-126013D01*
X295791Y-124568D01*
X298391Y-124568D01*
X298391Y-131068D01*
G54D13*
X306769Y-130346D02*
X305382Y-131068D01*
X303649Y-131068D01*
X301916Y-130346D01*
X301569Y-128902D01*
X301569Y-126446D01*
X302436Y-125002D01*
X304169Y-124568D01*
X305902Y-125002D01*
X306769Y-126013D01*
X306769Y-127457D01*
X301569Y-127457D01*
G54D13*
X309947Y-131068D02*
X309947Y-124568D01*
G54D13*
X312547Y-126735D02*
X315147Y-131068D01*
G54D13*
X309947Y-128180D02*
X315147Y-124568D01*
G54D13*
X318325Y-124568D02*
X323525Y-124568D01*
G54D13*
X320925Y-131068D02*
X320925Y-124568D01*
G54D13*
X327396Y-131068D02*
X326703Y-131068D01*
X326703Y-130491D01*
X327396Y-130491D01*
X327396Y-131068D01*
X326703Y-131068D01*
G54D13*
X289700Y-83244D02*
X296633Y-83244D01*
G54D13*
X293167Y-80356D02*
X293167Y-86133D01*
G54D13*
X316200Y-83344D02*
X323133Y-83344D01*
G54D10*
X185800Y-88900D02*
X205800Y-88900D01*
X205800Y-104900D01*
X185800Y-104900D01*
X185800Y-88900D01*
G54D10*
X187416Y-96789D02*
X190416Y-93789D01*
X190416Y-101789D01*
G54D10*
X197416Y-95289D02*
X197416Y-100289D01*
X196816Y-101289D01*
X195616Y-101789D01*
X194416Y-101789D01*
X193216Y-101289D01*
X192616Y-100289D01*
X192616Y-95289D01*
X193216Y-94289D01*
X194416Y-93789D01*
X195616Y-93789D01*
X196816Y-94289D01*
X197416Y-95289D01*
G54D10*
X199616Y-95289D02*
X200216Y-94289D01*
X201416Y-93789D01*
X202616Y-93789D01*
X203816Y-94289D01*
X204416Y-95289D01*
X204416Y-96289D01*
X203816Y-97289D01*
X202616Y-97789D01*
X203816Y-98289D01*
X204416Y-99289D01*
X204416Y-100289D01*
X203816Y-101289D01*
X202616Y-101789D01*
X201416Y-101789D01*
X200216Y-101289D01*
X199616Y-100289D01*
G54D10*
X181900Y-109400D02*
X201900Y-109400D01*
X201900Y-125400D01*
X181900Y-125400D01*
X181900Y-109400D01*
G54D10*
X188316Y-114289D02*
X183516Y-114289D01*
X183516Y-117789D01*
X184116Y-117789D01*
X185316Y-117289D01*
X186516Y-117289D01*
X187717Y-117789D01*
X188316Y-118789D01*
X188316Y-120789D01*
X187716Y-121789D01*
X186517Y-122289D01*
X185316Y-122289D01*
X184116Y-121789D01*
X183516Y-120789D01*
G54D10*
X195316Y-115789D02*
X194716Y-114789D01*
X193516Y-114289D01*
X192316Y-114289D01*
X191116Y-114789D01*
X190516Y-115789D01*
X190516Y-118289D01*
X190516Y-118789D01*
X192316Y-117789D01*
X193517Y-117789D01*
X194716Y-118289D01*
X195316Y-119289D01*
X195316Y-120789D01*
X194716Y-121789D01*
X193516Y-122289D01*
X192316Y-122289D01*
X191116Y-121789D01*
X190516Y-120789D01*
X190516Y-118289D01*
G54D10*
X197516Y-117289D02*
X200516Y-114289D01*
X200516Y-122289D01*
G54D13*
X166180Y-60202D02*
X166180Y-48647D01*
G54D13*
X166180Y-56591D02*
X173114Y-48647D01*
G54D13*
X168780Y-54424D02*
X173114Y-60202D01*
G54D13*
X176291Y-60202D02*
X176291Y-53702D01*
G54D13*
X176291Y-56591D02*
X181491Y-56591D01*
G54D13*
X181491Y-60202D02*
X181491Y-53702D01*
G54D13*
X189869Y-58469D02*
X189869Y-55580D01*
X189003Y-54136D01*
X187269Y-53702D01*
X185536Y-54136D01*
X184669Y-55580D01*
X184669Y-58469D01*
X185536Y-59913D01*
X187269Y-60202D01*
X189003Y-59913D01*
X189869Y-58469D01*
G54D13*
X193047Y-60202D02*
X193047Y-53702D01*
X198247Y-53702D01*
X198247Y-60202D01*
G54D13*
X201425Y-60202D02*
X201425Y-53702D01*
G54D13*
X204025Y-55869D02*
X206625Y-60202D01*
G54D13*
X201425Y-57313D02*
X206625Y-53702D01*
G54D13*
X209803Y-54424D02*
X211537Y-53702D01*
X213617Y-53702D01*
X215003Y-55147D01*
X215003Y-60202D01*
G54D13*
X215003Y-58036D02*
X214137Y-56591D01*
X212403Y-56302D01*
X210670Y-56591D01*
X209803Y-58036D01*
X210150Y-59480D01*
X211537Y-60202D01*
X212403Y-60202D01*
X212750Y-60202D01*
X214137Y-59480D01*
X215003Y-58036D01*
G54D13*
X92113Y-19668D02*
X92113Y-8113D01*
G54D13*
X92113Y-16057D02*
X99046Y-8113D01*
G54D13*
X94713Y-13891D02*
X99046Y-19668D01*
G54D13*
X102224Y-19668D02*
X102224Y-13168D01*
G54D13*
X102224Y-16057D02*
X107424Y-16057D01*
G54D13*
X107424Y-19668D02*
X107424Y-13168D01*
G54D13*
X115802Y-17935D02*
X115802Y-15046D01*
X114935Y-13602D01*
X113202Y-13168D01*
X111469Y-13602D01*
X110602Y-15046D01*
X110602Y-17935D01*
X111469Y-19380D01*
X113202Y-19668D01*
X114935Y-19380D01*
X115802Y-17935D01*
G54D13*
X118980Y-19668D02*
X118980Y-13168D01*
X124180Y-13168D01*
X124180Y-19668D01*
G54D13*
X127358Y-19668D02*
X127358Y-13168D01*
G54D13*
X129958Y-15335D02*
X132558Y-19668D01*
G54D13*
X127358Y-16780D02*
X132558Y-13168D01*
G54D13*
X135736Y-13891D02*
X137469Y-13168D01*
X139549Y-13168D01*
X140936Y-14613D01*
X140936Y-19668D01*
G54D13*
X140936Y-17502D02*
X140069Y-16057D01*
X138336Y-15768D01*
X136603Y-16057D01*
X135736Y-17502D01*
X136083Y-18946D01*
X137469Y-19668D01*
X138336Y-19668D01*
X138683Y-19668D01*
X140069Y-18946D01*
X140936Y-17502D01*
G54D10*
X352800Y-208500D02*
X352800Y-228500D01*
X336800Y-228500D01*
X336800Y-208500D01*
X352800Y-208500D01*
G54D10*
X347911Y-214916D02*
X347911Y-210116D01*
X344411Y-210116D01*
X344411Y-210716D01*
X344911Y-211916D01*
X344911Y-213116D01*
X344411Y-214316D01*
X343411Y-214916D01*
X341411Y-214916D01*
X340411Y-214316D01*
X339911Y-213116D01*
X339911Y-211916D01*
X340411Y-210716D01*
X341411Y-210116D01*
G54D10*
X346411Y-221916D02*
X347411Y-221316D01*
X347911Y-220116D01*
X347911Y-218916D01*
X347411Y-217716D01*
X346411Y-217116D01*
X343911Y-217116D01*
X343411Y-217116D01*
X344411Y-218916D01*
X344411Y-220116D01*
X343911Y-221316D01*
X342911Y-221916D01*
X341411Y-221916D01*
X340411Y-221316D01*
X339911Y-220116D01*
X339911Y-218916D01*
X340411Y-217716D01*
X341411Y-217116D01*
X343911Y-217116D01*
G54D10*
X344911Y-224116D02*
X347911Y-227116D01*
X339911Y-227116D01*
G54D12*
X80767Y-47800D02*
X76100Y-47800D01*
X76100Y-38911D01*
X80767Y-38911D01*
G54D12*
X76100Y-43356D02*
X80767Y-43356D01*
G54D10*
X8100Y-148300D02*
X78100Y-148300D01*
X78100Y-218300D01*
X8100Y-218300D01*
X8100Y-148300D01*
G54D12*
X68100Y-212300D02*
X68100Y-203411D01*
X71433Y-203411D01*
X72767Y-203967D01*
X73433Y-205078D01*
X73433Y-206189D01*
X72767Y-207300D01*
X71433Y-207856D01*
X72767Y-208411D01*
X73433Y-209522D01*
X73433Y-210633D01*
X72767Y-211744D01*
X71433Y-212300D01*
X68100Y-212300D01*
G54D12*
X68100Y-207856D02*
X71433Y-207856D01*
G54D11*
X15766Y-190967D02*
X15766Y-176745D01*
G54D11*
X15766Y-186523D02*
X24299Y-176745D01*
G54D11*
X18966Y-183856D02*
X24299Y-190967D01*
G54D11*
X32477Y-190967D02*
X32477Y-176745D01*
G54D11*
X28210Y-176745D02*
X36743Y-176745D01*
G54D11*
X40654Y-179411D02*
X41721Y-177634D01*
X43854Y-176745D01*
X45987Y-176745D01*
X48121Y-177634D01*
X49187Y-179411D01*
X49187Y-181189D01*
X48121Y-182967D01*
X45987Y-183856D01*
X48121Y-184745D01*
X49187Y-186523D01*
X49187Y-188300D01*
X48121Y-190078D01*
X45987Y-190967D01*
X43854Y-190967D01*
X41721Y-190078D01*
X40654Y-188300D01*
G54D11*
X53098Y-182078D02*
X58431Y-176745D01*
X58431Y-190967D01*
G54D11*
X70875Y-176745D02*
X62342Y-176745D01*
X62342Y-182967D01*
X63409Y-182967D01*
X65542Y-182078D01*
X67675Y-182078D01*
X69809Y-182967D01*
X70875Y-184745D01*
X70875Y-188300D01*
X69809Y-190078D01*
X67675Y-190967D01*
X65542Y-190967D01*
X63409Y-190078D01*
X62342Y-188300D01*
G54D12*
X72867Y-164100D02*
X68200Y-164100D01*
X68200Y-155211D01*
X72867Y-155211D01*
G54D12*
X68200Y-159656D02*
X72867Y-159656D01*
M02*
